<?xml version="1.0" encoding="UTF-8"?><svg id="Layer_1" xmlns="http://www.w3.org/2000/svg" viewBox="0 0 16 16"><defs><style>.cls-1{fill:#08b3e5;stroke-width:0px;}</style></defs><path class="cls-1" d="m11.29.16c.18,0,.18,0,.11.17-.15.38-.38.7-.66.99-.6.61-1.31,1.07-2.06,1.47-.14.08-.29.15-.43.23-.05.03-.1.02-.15,0-.68-.33-1.33-.72-1.93-1.2-.52-.42-.99-.88-1.24-1.52-.05-.14-.05-.15.09-.15,1.06,0,5.24,0,6.28,0Z"/><path class="cls-1" d="m7.8,15.72c-.65,0-1.68.01-2.7-.01-.16,0-.16,0-.1-.16.23-.51.61-.91,1.03-1.26.59-.48,1.23-.87,1.91-1.23.17-.09.3-.1.47-.01.81.43,1.59.89,2.25,1.54.29.29.53.61.71.97.07.14.06.16-.1.16-1.03,0-2.06,0-3.47,0Z"/><path class="cls-1" d="m11.38,7.47c-.1-.51-.34-.96-.62-1.38-.35-.52-.78-.97-1.25-1.38-.39-.34-.79-.67-1.24-.94-.07-.04-.12-.06-.2,0-.46.32-.9.66-1.32,1.03-.64.56-1.18,1.19-1.55,1.96-.31.65-.39,1.33-.14,2.02.2.56.52,1.05.9,1.5.62.72,1.35,1.3,2.13,1.83.07.05.11.02.17-.02.71-.46,1.36-1,1.94-1.62.65-.71,1.17-1.49,1.2-2.5,0-.17,0-.33-.03-.49Zm-.83,2.05c-.16.27-.49.26-.68,0-.15-.21-.24-.45-.32-.7-.03-.09-.05-.18-.08-.27-.02-.07-.05-.16-.12-.14-.08.02-.05.13-.03.19.04.15.1.3.15.45,0,0,0,.01,0,.01.2.3.23.61.08.94-.16.37-.39.67-.76.84-.65.28-1.27.2-1.86-.17-.9-.56-1.22-1.65-1.01-2.61.12-.58.41-1.08.81-1.51.11-.12.14-.23.12-.4-.04-.42.03-.82.26-1.18.26-.41.68-.48,1.11-.46.59.03,1.04.33,1.29.87.24.51.2,1.03-.14,1.51-.09.12-.21.21-.32.31-.07.06-.16.04-.24.04-.32-.02-.53.13-.65.42-.06.14-.12.03-.15,0-.18-.2-.38-.38-.6-.53-.18-.13-.36-.26-.61-.21-.22.05-.39.27-.35.49.09-.04.12-.12.17-.19.13-.19.31-.23.51-.12.33.18.58.46.84.73.11.11.21.23.32.35.03.03.07.08.12.04.06-.05.01-.1-.02-.14,0,0,0,0-.01-.01-.06-.07-.19-.13-.14-.24.08-.17.18-.34.38-.41.06-.02.14-.03.13.08-.02.29-.04.59-.13.87-.13.41-.38.5-.75.28-.23-.13-.44-.29-.64-.46-.07-.06-.15-.13-.26-.13,0,.09.06.12.1.16.22.19.45.37.7.51.11.06.14.13.11.25-.06.24-.08.49-.06.73,0,.05,0,.12.08.12.07,0,.08-.06.08-.12,0-.23,0-.46.03-.69.01-.09.04-.12.13-.11.33.04.51-.16.61-.43.11-.27.14-.56.14-.85,0-.21.05-.26.26-.19.45.15.69.51.89.91.06.11.09.23.14.35.02.06.04.16.12.13.1-.03.04-.12.03-.18-.02-.08-.06-.16-.1-.24-.02-.04-.05-.08-.02-.12.03-.05.09-.03.14-.02.19.03.27.19.31.34.09.32.04.64-.13.93Z"/></svg>